<svg width="320" height="238" viewBox="0 0 320 238" fill="none" xmlns="http://www.w3.org/2000/svg">
<path d="M200.938 26.9933C196.22 29.479 192.165 31.7443 191.982 32.0175C191.506 32.7698 191.921 33.6948 192.783 33.7265C193.197 33.7417 197.062 31.9243 201.358 29.6679C205.688 27.4128 209.416 25.5903 209.691 25.6005C209.932 25.6443 215.608 29.037 222.294 33.1666L234.449 40.6814L233.917 55.1476L233.386 69.6139L220.886 76.1524C214.02 79.7489 208.143 82.752 207.83 82.8105C207.516 82.9039 201.735 79.5423 194.983 75.3403L182.692 67.7506L182.937 58.2773C183.204 49.1198 183.181 48.8041 182.499 48.5691C180.898 47.9853 180.813 48.4021 180.415 59.2343C180.067 68.7038 180.079 69.334 180.656 69.6002C181.03 69.7539 186.874 73.2927 193.66 77.496L206.019 85.1232L205.751 95.2254C205.518 104.384 205.551 105.365 206.09 105.735C206.493 106.03 206.838 106.042 207.297 105.779C207.827 105.449 207.932 104.473 208.372 95.3218L208.847 85.2271L221.731 78.5278C228.808 74.8341 234.896 71.7338 235.281 71.608C235.876 71.3849 235.939 70.6175 236.468 56.2211C236.899 44.4804 237.132 40.9549 237.488 40.6881C237.701 40.521 241.399 38.5575 245.658 36.3697C249.918 34.147 253.512 32.1797 253.658 31.9751C254.058 31.43 253.878 30.6886 253.238 30.2452C252.801 29.9142 251.223 30.591 245.519 33.5654C241.61 35.6261 237.809 37.5858 237.105 37.9448L235.838 38.598L222.805 30.5262C215.647 26.0993 209.738 22.4531 209.668 22.4855C209.599 22.483 205.691 24.5087 200.938 26.9933Z" fill="#61279E"/>
<path d="M208.416 30.2422C208.162 30.5828 208.113 30.9659 208.273 31.3216C208.725 32.178 228.99 44.5395 229.787 44.4638C230.272 44.4117 230.561 44.0724 230.65 43.5158C230.785 42.681 230.079 42.1652 220.421 36.2119C214.75 32.6794 209.814 29.8037 209.469 29.791C209.124 29.7784 208.667 30.0065 208.416 30.2422Z" fill="#61279E"/>
<path d="M187.423 48.9949C187.101 49.2979 186.91 51.6702 186.695 57.5057C186.44 64.4593 186.465 65.6498 186.932 66.0869C187.3 66.4153 187.609 66.4617 188.033 66.1973C188.562 65.9019 188.668 64.8911 189.035 57.7316C189.402 49.6275 189.335 48.6453 188.266 48.606C188.024 48.5971 187.673 48.7591 187.423 48.9949Z" fill="#61279E"/>
<path d="M217.485 70.9889C211.71 74.0307 206.81 76.7547 206.626 77.0629C206.221 77.7478 206.774 78.6778 207.636 78.7095C208.153 78.7285 228.249 68.4454 229.351 67.5761C229.636 67.3417 229.862 66.8251 229.808 66.4382C229.658 64.8582 228.223 65.4003 217.485 70.9889Z" fill="#61279E"/>
<path d="M56.8987 66.6608C56.5397 67.0325 56.9416 69.2517 58.7613 77.0513C60.0451 82.5219 61.0187 87.0364 60.9127 87.1025C60.8399 87.2048 56.5558 88.202 51.4019 89.3772C41.4083 91.6341 40.601 91.9893 41.929 93.4377C42.261 93.7998 42.74 93.9224 43.1934 93.7991C44.7632 93.3669 60.9875 89.7645 61.3669 89.7784C61.5738 89.786 63.2086 96.0393 65.0858 104.156C66.9362 112.062 68.6285 118.632 68.829 118.814C69.064 118.998 69.58 119.052 69.9631 118.961C74.7032 117.771 98.5862 112.49 99.1035 112.509C99.4483 112.522 103.168 114.653 107.322 117.22C115.087 122.019 116.347 122.52 116.611 120.956C116.783 120.052 116.649 119.942 107.53 114.359L100.842 110.299L100.355 108.531C100.115 107.543 98.4979 100.8 96.8313 93.5312C94.7423 84.602 93.5898 80.2559 93.2475 80.1733C93.0074 80.1295 86.4306 81.4973 78.7004 83.2426C70.9357 84.9866 64.3908 86.4256 64.1123 86.4853C63.7317 86.5063 63.0259 84.1011 61.2929 76.7595C60.0397 71.3949 58.8949 66.8392 58.7992 66.6257C58.4749 66.054 57.4033 66.0846 56.8987 66.6608ZM92.3932 85.5654C92.7518 87.0831 94.1517 93.1528 95.5223 99.0815C96.9273 105.011 97.9915 109.879 97.92 109.947C97.7411 110.115 71.3483 116.038 70.8655 116.02C70.5551 116.009 69.3133 111.274 67.3187 102.594C65.587 95.217 64.2561 89.1498 64.3621 89.0837C64.5052 88.949 91.0412 82.8914 91.5252 82.8742C91.6645 82.8444 92.0333 84.0826 92.3932 85.5654Z" fill="#61279E"/>
<path d="M293.909 80.271C293.802 80.372 287.162 81.5626 279.136 82.9121C271.144 84.2628 264.228 85.4433 263.811 85.5329C263.36 85.5863 262.931 85.9904 262.845 86.4421C262.403 88.1403 258.358 117.383 258.49 117.563C259.055 118.144 276.745 126.352 277.165 126.192C277.795 125.97 278.168 125.214 277.984 124.578C277.888 124.364 274.129 122.372 269.581 120.21C265.067 118.05 261.301 116.232 261.235 116.159C261.034 115.977 265.054 88.3428 265.34 88.0734C265.556 87.8364 293.571 82.8828 293.738 83.0289C294.003 83.3536 306.893 107.515 306.982 107.904C307.04 108.221 304.591 110.965 300.968 114.646C294.584 121.094 293.889 122.153 295.845 122.47C296.567 122.566 297.528 121.797 301.727 117.473C306.641 112.475 306.749 112.374 307.949 112.593C311.928 113.334 328.185 115.401 328.675 115.244C329.373 115.025 329.485 113.874 328.918 113.329C328.683 113.145 324.153 112.384 318.862 111.629C313.571 110.91 309.175 110.259 309.108 110.186C309.041 110.149 309.226 109.806 309.549 109.468C310.231 108.758 310.369 107.818 309.864 107.485C308.786 106.745 310.508 106.879 319.097 108.069C324.318 108.821 328.961 109.341 329.413 109.253C330.283 109.075 330.494 108.033 329.758 107.376C329.39 107.048 310.986 104.202 308.641 104.116C308.158 104.098 306.499 101.308 302.105 93.0986C298.873 87.0666 295.961 81.746 295.634 81.2442C295.113 80.3853 294.267 79.9342 293.909 80.271Z" fill="#61279E"/>
<path d="M149.634 93.4427C149.521 93.6835 149.246 98.362 149.01 103.847L148.541 113.767L141.958 117.199C138.331 119.095 135.262 120.871 135.151 121.077C134.921 121.699 135.237 122.48 135.849 122.747C136.12 122.897 139.809 121.178 144.561 118.729C149.067 116.375 152.832 114.484 152.935 114.488C153.211 114.498 177.252 129.343 177.584 129.705C177.982 130.139 175.754 158.819 175.255 159.256C175.006 159.456 169.37 162.468 162.681 165.931L150.536 172.238L137.171 171.327C123.463 170.368 122.805 170.414 122.76 171.637C122.719 172.755 123.783 172.934 136.527 173.822L149.409 174.716L148.933 189.534C148.573 201.207 148.557 204.461 148.891 204.788C149.557 205.442 175.425 221.334 175.873 221.35C176.08 221.358 176.676 221.1 177.172 220.768C177.702 220.438 184.041 217.102 191.258 213.343L204.353 206.547L204.869 190.645C205.269 176.944 205.282 174.705 204.843 174.444C204.573 174.259 199.036 170.837 192.519 166.818C186.035 162.836 180.6 159.452 180.502 159.308C180.369 159.164 180.296 153.633 180.333 146.986C180.37 140.339 180.334 133.795 180.281 132.428L180.2 129.941L188.052 125.821C194.706 122.356 195.908 121.596 196.038 120.866C196.351 118.918 195.13 119.258 187.138 123.443C182.42 125.894 179.293 127.353 178.883 127.233C178.542 127.116 173.541 124.133 167.802 120.563L157.334 114.125L157.696 104.271C157.895 98.8548 157.962 94.2037 157.871 93.8854C157.588 93.1052 156.138 93.1219 155.66 93.9091C155.437 94.3208 155.163 98.0196 154.962 103.506C154.637 112.346 154.633 112.451 153.959 112.006C153.454 111.638 153.04 111.623 152.236 111.908L151.187 112.254L151.466 102.782L151.712 93.2741L150.75 93.1338C150.201 93.0436 149.747 93.1669 149.634 93.4427ZM190.554 168.6L202.539 176.039L202.004 190.61L201.468 205.181L188.652 211.883L175.803 218.549L163.377 210.884L150.953 203.184L151.553 188.721L152.19 174.223L164.865 167.586C171.837 163.924 177.781 160.993 178.055 161.038C178.329 161.118 183.971 164.509 190.554 168.6Z" fill="#61279E"/>
<path d="M166.65 170.696C156.652 175.892 155.415 176.651 155.357 177.279C155.346 177.593 156.309 178.643 156.619 178.655C156.757 178.66 161.789 176.116 167.774 172.977C176.505 168.434 178.728 167.151 178.82 166.525C178.986 165.761 178.458 165.112 177.733 165.085C177.561 165.079 172.564 167.624 166.65 170.696Z" fill="#61279E"/>
<path d="M197.113 178.044C196.433 178.684 196.381 179.172 195.972 190.283C195.705 197.551 195.677 202.064 195.868 202.526C196.286 203.346 197.732 203.469 198.071 202.712C198.186 202.401 198.493 196.849 198.732 190.35C199.11 180.077 199.101 178.432 198.635 177.96C197.971 177.236 197.971 177.236 197.113 178.044Z" fill="#61279E"/>
<path d="M155.084 199.767C154.654 200.171 154.608 200.484 154.833 200.948C155.152 201.659 174.867 213.965 175.863 214.107C176.721 214.244 177.451 213.186 177.028 212.47C176.702 211.933 157.496 199.891 156.269 199.461C155.928 199.343 155.404 199.499 155.084 199.767Z" fill="#61279E"/>
<path d="M216.101 120.868C215.812 121.208 215.729 121.59 215.957 121.948C216.12 122.234 218.916 124.121 222.158 126.13L228.067 129.776L227.829 140.929L227.593 152.047L228.628 152.085L229.662 152.123L230.147 141.749L230.597 131.408L231.582 131.83C233.826 132.787 234.55 130.959 232.495 129.554C229.159 127.297 217.604 120.364 217.121 120.346C216.811 120.335 216.388 120.564 216.101 120.868Z" fill="#61279E"/>
<path d="M234.882 128.487C234.594 128.791 234.363 132.282 234.126 140.601C233.829 151.506 233.835 152.276 234.417 152.403C235.992 152.776 236.038 152.462 236.486 140.267C236.89 129.295 236.874 128.77 236.266 128.398C235.421 127.912 235.387 127.911 234.882 128.487Z" fill="#61279E"/>
<path d="M288.953 141.811C288.276 142.381 288.274 142.451 289.651 150.059C290.394 154.285 291.117 158.091 291.204 158.549C291.348 159.324 290.56 160.1 284.435 165.158C279.094 169.545 277.484 171.061 277.461 171.69C277.422 172.738 278.305 173.155 279.295 172.527C279.718 172.298 282.886 169.72 286.376 166.839C289.866 163.958 292.921 161.621 293.128 161.629C293.646 161.648 320.028 171.05 320.362 171.342C320.629 171.597 325.501 198.753 325.436 199.591C325.426 199.87 321.645 203.16 317.016 206.944C312.388 210.728 307.368 214.847 305.837 216.085L303.06 218.362L289.497 213.455C282.068 210.768 275.834 208.439 275.701 208.294C275.568 208.15 274.777 204.307 273.977 199.764C273.177 195.22 272.321 191.27 272.09 190.982C271.494 190.295 270.2 190.737 270.165 191.681C270.132 192.589 272.942 209.138 273.228 209.813C273.356 210.098 278.291 212.064 284.187 214.17C290.082 216.311 296.864 218.765 299.25 219.622L303.577 221.216L314.544 212.206C320.561 207.284 325.902 202.897 326.434 202.496L327.359 201.761L336.492 205.07C341.536 206.9 345.971 208.358 346.387 208.303C346.838 208.25 347.127 207.911 347.219 207.284C347.36 206.275 348.924 206.927 332.191 200.889L328.136 199.41L325.474 184.476C323.98 176.269 322.778 169.507 322.779 169.472C322.779 169.472 321.655 169.045 320.326 168.577C316.847 167.399 293.979 159.141 293.913 159.068C293.88 159.032 293.243 155.685 292.53 151.6C290.872 142.231 290.753 141.702 290.14 141.47C289.869 141.32 289.344 141.51 288.953 141.811Z" fill="#61279E"/>
<path d="M287.556 170.416C284.244 173.164 281.427 175.579 281.279 175.854C280.976 176.578 282.207 177.847 282.876 177.487C284.461 176.636 295.229 167.409 295.248 166.885C295.268 166.361 294.366 165.523 293.78 165.502C293.676 165.498 290.902 167.705 287.556 170.416Z" fill="#61279E"/>
<path d="M118.947 172.022L118.678 179.36L119.54 179.391L120.402 179.423L120.672 172.085L120.941 164.747L120.079 164.715L119.217 164.684L118.947 172.022Z" fill="#61279E"/>
<path d="M315.355 174.167C314.959 174.608 315.231 176.612 316.802 185.522C319.349 199.857 319.14 198.974 320.14 199.011C320.588 199.027 321.114 198.802 321.297 198.529C321.482 198.186 320.848 193.824 319.533 186.392C318.421 180.018 317.413 174.558 317.286 174.238C317.069 173.565 315.931 173.524 315.355 174.167Z" fill="#61279E"/>
<path d="M279.109 203.871C278.43 204.511 278.565 205.531 279.414 205.912C280.635 206.516 301.836 214.084 302.353 214.103C303.077 214.129 303.604 212.959 303.145 212.277C302.849 211.882 280.504 203.502 279.642 203.471C279.608 203.47 279.36 203.635 279.109 203.871Z" fill="#61279E"/>
<path d="M258.286 26.3368L258.017 33.6748L259.051 33.7128L260.086 33.7509L260.208 30.4313L260.33 27.1118L263.778 27.2385L267.227 27.3653L267.259 26.4917L267.291 25.6181L263.842 25.4914L260.394 25.3646L260.477 23.0933L260.561 20.8221L264.527 20.9678L268.493 21.1136L268.525 20.24L268.557 19.3665L263.556 19.1827L258.556 18.9989L258.286 26.3368Z" fill="#87A9E2"/>
<path d="M176.343 38.5107L176.078 45.7089L176.94 45.7406L177.802 45.7723L178.001 40.3562C178.111 37.3861 178.304 34.9439 178.476 34.9502C178.613 34.9902 180.249 37.4647 182.14 40.5083C185.366 45.7354 185.631 46.06 186.7 46.0993L187.803 46.1399L188.066 38.9766L188.33 31.8134L187.295 31.7754L186.295 31.7386L185.991 37.1859L185.687 42.6331L182.229 37.1525C179.13 32.21 178.667 31.6332 177.706 31.4929L176.606 31.3475L176.343 38.5107Z" fill="#87A9E2"/>
<path d="M50.9318 58.9538L50.6621 66.2917L51.6967 66.3298L52.7312 66.3678L52.8532 63.0482L52.9753 59.7287L56.4238 59.8555L59.8723 59.9822L59.9044 59.1086L59.9365 58.2351L56.488 58.1083L53.0395 57.9816L53.123 55.7103L53.2064 53.439L57.1722 53.5848L61.1381 53.7306L61.1702 52.857L61.2023 51.9834L56.2019 51.7996L51.2015 51.6158L50.9318 58.9538Z" fill="#87A9E2"/>
<path d="M151.481 76.0507C149.841 76.5153 147.834 78.5059 147.254 80.1991C145.467 85.5918 148.359 90.5267 153.463 90.7143C155.705 90.7967 157.349 90.2273 158.675 88.9114C161.504 86.1463 161.664 80.8687 159.008 77.9718C157.182 75.9803 154.308 75.2448 151.481 76.0507ZM157.118 78.6372C158.45 79.9808 158.887 81.2565 158.809 83.388C158.68 86.8822 157.123 88.8544 154.245 89.1685C152.407 89.3809 150.107 88.0717 149.307 86.3627C148.602 84.8673 148.657 81.4753 149.397 80.1379C149.952 79.1436 151.275 77.8976 152.114 77.6135C152.395 77.4839 153.466 77.4882 154.463 77.5949C155.806 77.7142 156.486 77.9841 157.118 78.6372Z" fill="#87A9E2"/>
<path d="M27.8322 95.5439L27.5625 102.882L28.4246 102.914C29.2868 102.945 29.2868 102.945 29.4088 99.6257L29.5295 96.3411L33.0853 96.3668C36.4343 96.3849 36.608 96.3563 36.7384 95.6263C36.8701 94.8614 36.7667 94.8576 33.322 94.626L29.7739 94.3906L29.7513 92.1854L29.7275 90.0152L33.9002 90.1685L38.0384 90.3206L38.0706 89.4471L38.1027 88.5735L33.1023 88.3897L28.1019 88.2059L27.8322 95.5439Z" fill="#87A9E2"/>
<path d="M200.109 115.347L199.846 122.51L200.88 122.548L201.88 122.585L202.185 117.103L202.491 111.621L206.013 117.244C209.209 122.365 209.64 122.87 210.536 122.903L211.571 122.941L211.834 115.778L212.097 108.615L211.235 108.583L210.373 108.552L210.097 114.175L209.787 119.797L206.2 114.032C202.809 108.588 202.545 108.264 201.51 108.226L200.372 108.184L200.109 115.347Z" fill="#87A9E2"/>
<path d="M281.383 130.756L281.113 138.094L281.975 138.126L282.838 138.157L283.046 132.497C283.195 128.443 283.353 126.944 283.619 127.234C283.818 127.451 285.486 129.997 287.312 132.933C290.347 137.733 290.776 138.274 291.672 138.307L292.672 138.344L293.043 131.08L293.378 123.849L292.343 123.811L291.309 123.773L291.101 129.434L290.892 135.094L287.238 129.292C283.975 124.133 283.48 123.485 282.618 123.453L281.653 123.418L281.383 130.756Z" fill="#87A9E2"/>
<path d="M119.545 127.572L119.274 134.944L120.309 134.982L121.344 135.021L121.617 129.467L121.923 123.95L125.479 129.609C128.676 134.695 129.137 135.307 130.034 135.34L130.999 135.375L131.269 128.037L131.539 120.7L130.677 120.668L129.815 120.636L129.607 126.297C129.458 130.35 129.299 131.849 129.033 131.559C128.834 131.342 127.166 128.796 125.341 125.86C122.339 121.096 121.877 120.519 120.88 120.378L119.815 120.234L119.545 127.572Z" fill="#87A9E2"/>
<path d="M118.975 144.975L118.811 152.247L119.773 152.388L120.7 152.527L120.828 149.032L120.958 145.503L124.752 145.643L128.51 145.781L128.489 149.174L128.467 152.602L129.429 152.743L130.356 152.882L130.626 145.544L130.897 138.171L129.862 138.133L128.827 138.095L128.718 141.065L128.609 144.035L124.816 143.896L121.022 143.756L121.132 140.786L121.241 137.816L120.206 137.778L119.172 137.74L118.975 144.975Z" fill="#87A9E2"/>
<path d="M228.981 154.722C224.516 155.923 222.563 162.079 225.266 166.517C227.187 169.702 232.615 170.461 235.641 167.983C238.633 165.504 238.932 159.252 236.202 156.492C234.503 154.785 231.492 154.045 228.981 154.722ZM233.973 157.005C235.455 158.004 236.118 159.708 236.022 162.329C235.932 164.775 235.295 166.116 233.738 167.144C232.322 168.106 229.836 168.085 228.318 167.119C226.126 165.674 225.315 161.446 226.757 158.839C228.13 156.266 231.615 155.379 233.973 157.005Z" fill="#87A9E2"/>
<path d="M108.938 164.376C105.815 164.786 103.767 166.95 103.229 170.324C102.866 172.69 103.684 175.799 105.078 177.32C107.867 180.362 113.69 179.771 115.475 176.303C116.183 174.894 116.064 174.365 114.961 174.324C114.409 174.304 114.053 174.606 113.75 175.33C113.106 176.881 111.312 177.759 109.284 177.51C106.156 177.115 104.61 174.084 105.386 169.879C105.904 167.064 108.805 165.176 111.436 165.937C112.289 166.214 113.459 167.271 114.072 168.449C114.46 169.163 115.952 168.972 115.979 168.239C116.002 167.61 114.451 165.663 113.539 165.105C112.424 164.434 110.571 164.121 108.938 164.376Z" fill="#87A9E2"/>
<path d="M263.006 179.766L262.736 187.104L263.598 187.136L264.461 187.167L264.736 181.544L265.047 175.922L268.633 181.687C272.024 187.13 272.289 187.455 273.358 187.494L274.461 187.535L274.66 180.264L274.822 173.027L273.96 172.996L273.098 172.964L272.721 178.514L272.344 184.063L269.932 180.161C265.595 173.213 265.069 172.494 264.138 172.46L263.276 172.428L263.006 179.766Z" fill="#87A9E2"/>
</svg>
