<svg width="379" height="346" viewBox="0 0 379 346" fill="none" xmlns="http://www.w3.org/2000/svg">
<path d="M96.2366 41.353C89.4259 44.8433 83.5721 48.0276 83.306 48.4159C82.6112 49.4856 83.1944 50.8152 84.4321 50.8727C85.0262 50.9003 90.6023 48.3544 96.8026 45.1863C103.052 42.0205 108.43 39.4653 108.826 39.4838C109.171 39.5499 117.277 44.4851 126.821 50.489L144.175 61.4144L143.213 82.1078L142.251 102.801L124.211 111.981C114.301 117.03 105.819 121.245 105.369 121.324C104.917 121.453 96.6598 116.561 87.0207 110.452L69.4738 99.4178L69.955 85.8653C70.4648 72.7648 70.4362 72.3127 69.46 71.9667C67.168 71.1088 67.0411 71.704 66.3207 87.1991C65.691 100.745 65.6987 101.647 66.524 102.036C67.0593 102.261 75.4035 107.408 85.092 113.519L102.736 124.608L102.213 139.06C101.752 152.163 101.786 153.567 102.555 154.104C103.131 154.531 103.626 154.554 104.288 154.184C105.054 153.719 105.218 152.324 105.975 139.235L106.795 124.796L125.392 115.392C135.605 110.206 144.391 105.856 144.945 105.682C145.803 105.371 145.903 104.273 146.861 83.68C147.642 66.8853 148.025 61.8438 148.539 61.467C148.847 61.2309 154.185 58.4735 160.331 55.4031C166.48 52.2826 171.669 49.5184 171.881 49.2277C172.463 48.4532 172.214 47.3898 171.302 46.7462C170.679 46.2664 168.402 47.2125 160.171 51.3882C154.529 54.2817 149.042 57.0322 148.027 57.536L146.198 58.4528L127.592 46.7179C117.373 40.2818 108.937 34.9806 108.835 35.026C108.736 35.0214 103.097 37.8649 96.2366 41.353Z" fill="#61279E"/>
<path d="M106.931 46.108C106.561 46.5917 106.486 47.1393 106.71 47.6506C107.348 48.8825 136.281 66.8581 137.427 66.7611C138.125 66.6934 138.544 66.212 138.68 65.4168C138.884 64.2241 137.877 63.476 124.09 54.8203C115.993 49.6851 108.944 45.5003 108.449 45.4773C107.954 45.4543 107.294 45.7742 106.931 46.108Z" fill="#61279E"/>
<path d="M76.524 72.6457C76.0575 73.0749 75.751 76.4669 75.3629 84.8142C74.9005 94.7611 74.9205 96.4651 75.5858 97.0972C76.1094 97.5723 76.5527 97.643 77.1654 97.2708C77.9289 96.8555 78.0953 95.4105 78.7202 85.1707C79.3583 73.579 79.2749 72.1725 77.7401 72.1012C77.3936 72.0851 76.8869 72.312 76.524 72.6457Z" fill="#61279E"/>
<path d="M119.397 104.544C111.061 108.815 103.987 112.644 103.718 113.082C103.127 114.056 103.908 115.395 105.146 115.453C105.889 115.487 134.89 101.056 136.485 99.8283C136.897 99.4968 137.229 98.7608 137.156 98.2064C136.963 95.9433 134.894 96.6987 119.397 104.544Z" fill="#61279E"/>
<path d="M229.024 118.908C228.868 119.051 219.317 120.66 207.771 122.478C196.275 124.298 186.328 125.889 185.727 126.011C185.079 126.081 184.457 126.654 184.327 127.299C183.669 129.723 177.459 171.511 177.646 171.771C178.45 172.609 203.742 184.605 204.348 184.383C205.255 184.074 205.801 182.998 205.546 182.084C205.412 181.777 200.039 178.873 193.538 175.715C187.086 172.56 181.702 169.905 181.607 169.801C181.322 169.537 187.474 130.05 187.889 129.668C188.202 129.332 228.503 122.64 228.741 122.852C229.116 123.32 247.297 158.077 247.42 158.634C247.498 159.089 243.943 162.981 238.69 168.197C229.433 177.334 228.421 178.84 231.226 179.321C232.261 179.469 233.652 178.382 239.741 172.253C246.868 165.171 247.023 165.028 248.745 165.358C254.448 166.475 277.768 169.663 278.473 169.445C279.479 169.141 279.655 167.496 278.848 166.707C278.513 166.441 272.017 165.288 264.43 164.134C256.841 163.029 250.536 162.035 250.442 161.931C250.345 161.876 250.616 161.388 251.085 160.908C252.074 159.903 252.286 158.56 251.564 158.075C250.026 157.002 252.497 157.217 264.816 159.042C272.304 160.192 278.964 161.002 279.615 160.882C280.867 160.64 281.184 159.152 280.136 158.202C279.613 157.726 253.22 153.394 249.854 153.237C249.161 153.205 246.817 149.189 240.618 137.38C236.06 128.702 231.951 121.047 231.488 120.324C230.752 119.088 229.542 118.431 229.024 118.908Z" fill="#61279E"/>
<path d="M21.6444 135.715C21.4796 136.058 21.0197 142.749 20.6053 150.594L19.7969 164.783L10.2949 169.601C5.06074 172.263 0.628049 174.762 0.465581 175.055C0.126705 175.941 0.570664 177.063 1.44554 177.455C1.83232 177.673 7.15383 175.265 14.0117 171.827C20.5161 168.523 25.9482 165.87 26.0967 165.877C26.4928 165.896 60.8155 187.478 61.2873 188.001C61.8535 188.628 58.2601 229.637 57.5368 230.255C57.1763 230.538 49.0412 234.769 39.3883 239.63L21.8595 248.482L2.67825 246.99C-16.9958 245.424 -17.9411 245.48 -18.0224 247.229C-18.0968 248.829 -16.5713 249.1 1.71881 250.552L20.207 252.012L19.3207 273.21C18.6436 289.909 18.576 294.565 19.0502 295.038C19.9985 295.983 56.9296 319.09 57.5732 319.12C57.8702 319.133 58.7304 318.773 59.4468 318.305C60.2127 317.84 69.3611 313.156 79.7775 307.879L98.6779 298.339L99.6362 275.591C100.399 255.991 100.448 252.787 99.821 252.407C99.4365 252.139 91.531 247.163 82.2268 241.321C72.9699 235.53 65.2106 230.611 65.0713 230.404C64.8826 230.195 64.8537 222.279 64.9981 212.769C65.1426 203.258 65.1811 193.892 65.1232 191.936L65.0406 188.376L76.3737 182.591C85.9771 177.728 87.7138 176.656 87.9111 175.614C88.3878 172.831 86.6295 173.3 75.0937 179.175C68.2853 182.616 63.7745 184.66 63.1874 184.483C62.6993 184.31 55.558 179.97 47.3647 174.781L32.4191 165.42L33.0744 151.324C33.4346 143.577 33.5951 136.922 33.4675 136.465C33.0731 135.345 30.9891 135.348 30.292 136.468C29.9671 137.054 29.5228 142.343 29.1579 150.19C28.57 162.836 28.5631 162.986 27.6008 162.34C26.8814 161.806 26.2873 161.779 25.1277 162.175L23.6169 162.656L24.1476 149.106L24.6311 135.503L23.2519 135.289C22.4644 135.152 21.8115 135.322 21.6444 135.715ZM79.3807 243.843L96.4914 254.657L95.5224 275.5L94.5534 296.344L76.056 305.753L57.5115 315.109L39.7712 303.966L22.0332 292.772L23.0943 272.083L24.2071 251.347L42.5018 242.029C52.5647 236.886 61.1407 232.776 61.5344 232.845C61.9259 232.963 69.9823 237.896 79.3807 243.843Z" fill="#61279E"/>
<path d="M45.0226 246.504C30.5928 253.798 28.8066 254.867 28.7153 255.764C28.6943 256.214 30.0627 257.73 30.5083 257.751C30.7063 257.76 37.9672 254.19 46.6067 249.783C59.2077 243.406 62.4174 241.602 62.5582 240.707C62.8074 239.616 62.057 238.68 61.0174 238.631C60.7698 238.62 53.5584 242.192 45.0226 246.504Z" fill="#61279E"/>
<path d="M88.6717 257.449C87.6869 258.355 87.6048 259.053 86.8659 274.948C86.3826 285.344 86.2808 291.802 86.5477 292.465C87.1378 293.645 89.2125 293.841 89.7092 292.762C89.8787 292.319 90.3967 284.379 90.8289 275.082C91.5121 260.387 91.5223 258.033 90.8593 257.351C89.9157 256.305 89.9157 256.305 88.6717 257.449Z" fill="#61279E"/>
<path d="M28.0131 287.941C27.3911 288.513 27.3207 288.96 27.637 289.626C28.0856 290.649 56.2293 308.538 57.658 308.755C58.8888 308.962 59.951 307.459 59.3538 306.429C58.8936 305.656 31.4763 288.152 29.7196 287.519C29.2315 287.346 28.4773 287.561 28.0131 287.941Z" fill="#61279E"/>
<path d="M116.724 175.901C116.305 176.383 116.18 176.928 116.504 177.444C116.733 177.855 120.723 180.595 125.351 183.515L133.787 188.817L133.293 204.773L132.802 220.68L134.287 220.749L135.772 220.818L136.611 205.979L137.398 191.189L138.808 191.805C142.017 193.207 143.081 190.601 140.149 188.561C135.39 185.285 118.89 175.2 118.197 175.168C117.752 175.147 117.141 175.47 116.724 175.901Z" fill="#61279E"/>
<path d="M143.593 187.068C143.176 187.5 142.795 192.491 142.341 204.392C141.764 219.994 141.763 221.096 142.597 221.285C144.854 221.841 144.924 221.393 145.735 203.949C146.465 188.254 146.45 187.502 145.582 186.961C144.375 186.253 144.325 186.251 143.593 187.068Z" fill="#61279E"/>
<path d="M221.063 206.9C220.083 207.706 220.078 207.806 221.952 218.713C222.961 224.771 223.948 230.227 224.066 230.883C224.262 231.994 223.12 233.093 214.253 240.245C206.523 246.448 204.19 248.594 204.149 249.493C204.079 250.993 205.34 251.602 206.771 250.717C207.381 250.395 211.966 246.751 217.018 242.678C222.07 238.605 226.49 235.304 226.787 235.318C227.53 235.352 265.289 249.18 265.765 249.603C266.145 249.971 272.77 288.9 272.665 290.097C272.646 290.497 267.171 295.152 260.472 300.501C253.773 305.85 246.507 311.673 244.292 313.424L240.272 316.643L220.861 309.429C210.228 305.478 201.308 302.058 201.119 301.849C200.93 301.64 199.847 296.129 198.76 289.617C197.674 283.105 196.499 277.44 196.171 277.024C195.324 276.033 193.459 276.647 193.397 277.997C193.336 279.296 197.145 303.017 197.547 303.987C197.726 304.396 204.786 307.279 213.226 310.376C221.663 313.524 231.369 317.131 234.783 318.392L240.975 320.733L256.849 307.996C265.557 301.038 273.288 294.835 274.058 294.27L275.397 293.23L288.467 298.095C295.685 300.785 302.036 302.934 302.634 302.862C303.283 302.792 303.702 302.31 303.843 301.415C304.059 299.972 306.296 300.928 282.348 292.05L276.545 289.877L272.926 268.47C270.893 256.704 269.26 247.01 269.262 246.96C269.262 246.96 267.654 246.334 265.751 245.645C260.771 243.911 228.044 231.77 227.949 231.665C227.902 231.613 227.034 226.814 226.065 220.958C223.812 207.529 223.649 206.77 222.772 206.428C222.385 206.21 221.628 206.475 221.063 206.9Z" fill="#61279E"/>
<path d="M218.665 247.814C213.87 251.699 209.791 255.116 209.575 255.506C209.13 256.537 210.88 258.372 211.847 257.866C214.135 256.67 229.725 243.619 229.76 242.87C229.795 242.12 228.512 240.908 227.67 240.869C227.522 240.862 223.507 243.981 218.665 247.814Z" fill="#61279E"/>
<path d="M258.535 253.575C257.961 254.199 258.323 257.071 260.458 269.844C263.919 290.392 263.63 289.126 265.066 289.193C265.71 289.223 266.469 288.908 266.735 288.519C267.005 288.031 266.155 281.78 264.368 271.128C262.858 261.991 261.485 254.163 261.308 253.703C261.006 252.738 259.372 252.662 258.535 253.575Z" fill="#61279E"/>
<path d="M206.075 295.567C205.09 296.473 205.27 297.934 206.485 298.492C208.23 299.374 238.573 310.503 239.316 310.538C240.356 310.586 241.128 308.919 240.479 307.937C240.059 307.366 208.083 295.06 206.846 295.002C206.796 295 206.438 295.234 206.075 295.567Z" fill="#61279E"/>
<path d="M178.604 41.2251L178.116 51.7217L179.601 51.7908L181.087 51.8598L181.307 47.1113L181.528 42.3629L186.479 42.593L191.43 42.8232L191.488 41.5736L191.546 40.324L186.595 40.0938L181.644 39.8637L181.795 36.6147L181.946 33.3657L187.64 33.6304L193.333 33.8951L193.391 32.6455L193.45 31.3959L186.271 31.0622L179.092 30.7284L178.604 41.2251Z" fill="#E74C39"/>
<path d="M60.756 57.4866L60.2773 67.7833L61.515 67.8409L62.7528 67.8984L63.1129 60.1509C63.3105 55.9022 63.6216 52.4102 63.8692 52.4218C64.0649 52.4809 66.38 56.0449 69.0539 60.4271C73.616 67.9526 73.9911 68.4209 75.5259 68.4922L77.1101 68.5659L77.5865 58.3191L78.0629 48.0724L76.5776 48.0034L75.1419 47.9366L74.6308 55.7272L74.1198 63.5178L69.2275 55.6263C64.8449 48.5098 64.1889 47.6779 62.8097 47.4635L61.2324 47.2399L60.756 57.4866Z" fill="#E74C39"/>
<path d="M24.5371 110.854C22.1753 111.495 19.2658 114.316 18.4093 116.73C15.7694 124.422 19.855 131.525 27.1822 131.865C30.4002 132.015 32.7689 131.223 34.6913 129.359C38.793 125.442 39.0944 117.892 35.3197 113.709C32.7245 110.834 28.6077 109.741 24.5371 110.854ZM32.5974 114.635C34.4918 116.576 35.1012 118.408 34.9595 121.457C34.7271 126.455 32.4635 129.256 28.3264 129.664C25.6839 129.942 22.3987 128.036 21.2725 125.579C20.2809 123.429 20.4073 118.576 21.4881 116.673C22.2981 115.258 24.2159 113.494 25.425 113.099C25.8304 112.918 27.3674 112.939 28.7985 113.106C30.7247 113.295 31.6986 113.691 32.5974 114.635Z" fill="#E74C39"/>
<path d="M289.58 156.787C283.261 159.299 281.259 169.274 285.978 174.503C290.885 179.941 300.592 178.188 302.94 171.434C304.318 167.391 303.707 162.403 301.451 159.694C299.054 156.827 293.167 155.401 289.58 156.787ZM297.913 160.03C299.741 161.267 300.891 164.276 300.745 167.425C300.517 172.324 297.542 175.491 293.333 175.296C288.482 175.07 286.141 172.056 286.401 166.458C286.61 161.959 287.941 160.017 291.566 158.883C293.779 158.235 295.797 158.579 297.913 160.03Z" fill="#E74C39"/>
<path d="M93.8328 167.774L93.3564 178.021L94.8417 178.09L96.2774 178.157L96.7908 170.316L97.3041 162.476L102.286 170.572C106.806 177.945 107.417 178.675 108.704 178.734L110.189 178.803L110.666 168.557L111.142 158.31L109.904 158.252L108.667 158.195L108.193 166.238L107.671 174.278L102.599 165.978C97.8033 158.141 97.4282 157.672 95.9429 157.603L94.3092 157.527L93.8328 167.774Z" fill="#E74C39"/>
<path d="M210.342 190.973L209.854 201.47L211.092 201.528L212.33 201.585L212.706 193.488C212.976 187.69 213.224 185.547 213.602 185.965C213.885 186.279 216.245 189.945 218.827 194.173C223.12 201.085 223.728 201.865 225.016 201.924L226.451 201.991L227.083 191.601L227.663 181.259L226.178 181.19L224.693 181.121L224.316 189.219L223.94 197.316L218.771 188.961C214.155 181.533 213.454 180.599 212.217 180.541L210.83 180.477L210.342 190.973Z" fill="#E74C39"/>
<path d="M134.756 224.528C128.329 226.183 125.44 234.965 129.261 241.354C131.975 245.938 139.76 247.102 144.14 243.598C148.471 240.093 148.986 231.15 145.103 227.163C142.687 224.696 138.372 223.594 134.756 224.528ZM141.895 227.865C144.01 229.316 144.938 231.764 144.764 235.512C144.601 239.011 143.669 240.922 141.419 242.37C139.371 243.727 135.802 243.662 133.634 242.258C130.507 240.159 129.4 234.097 131.507 230.388C133.513 226.724 138.531 225.505 141.895 227.865Z" fill="#E74C39"/>
<path d="M183.279 260.846L182.791 271.343L184.029 271.4L185.266 271.458L185.74 263.415L186.262 255.375L191.334 263.675C196.13 271.512 196.505 271.981 198.04 272.052L199.624 272.126L200.008 261.724L200.341 251.371L199.103 251.313L197.865 251.256L197.248 259.191L196.631 267.127L193.221 261.509C187.087 251.506 186.341 250.469 185.005 250.407L183.767 250.35L183.279 260.846Z" fill="#E74C39"/>
<path d="M313.319 297.147C310.698 298.027 308.149 300.564 307.279 303.278C305.823 307.919 307.18 313.943 310.289 316.442C311.628 317.506 312.463 317.696 315.929 317.857C319.246 318.011 320.245 317.857 321.423 317.06C322.755 316.17 325.619 312.196 325.239 311.828C325.144 311.723 324.461 311.491 323.727 311.256C322.65 310.956 322.348 311.042 322.318 311.692C322.255 313.041 319.008 315.645 317.012 315.903C314.664 316.245 311.905 314.764 310.526 312.396C309.285 310.284 309.27 305.274 310.536 302.578C312.681 298.07 320.823 297.947 322.007 302.36C322.305 303.426 324.368 303.873 324.955 302.998C325.487 302.221 323.639 299.28 321.953 298.2C319.932 296.854 315.836 296.363 313.319 297.147Z" fill="#E74C39"/>
<path d="M329.424 308.265L328.936 318.762L330.329 318.676L331.672 318.589L332.287 310.703L332.904 302.767L337.976 311.067C342.448 318.388 343.196 319.375 344.434 319.432L345.771 319.494L346.259 308.998L346.747 298.501L345.509 298.444L344.271 298.386L343.796 306.479L343.271 314.569L338.201 306.219C333.406 298.382 333.031 297.914 331.548 297.794L329.914 297.719L329.424 308.265Z" fill="#E74C39"/>
</svg>
