<svg width="267" height="172" viewBox="0 0 267 172" fill="none" xmlns="http://www.w3.org/2000/svg">
<g clip-path="url(#clip0_506_26312)">
<path d="M70.6795 -28.6652C67.0213 -25.7793 63.8987 -23.1885 63.7852 -22.9248C63.4954 -22.2028 63.999 -21.4742 64.7446 -21.5841C65.1025 -21.6368 68.134 -23.8127 71.4654 -26.4343C74.8267 -29.0602 77.7388 -31.2186 77.9774 -31.2538C78.1906 -31.2543 83.6067 -29.2426 90.0066 -26.7584L101.644 -22.2361L103.488 -9.72441L105.332 2.78729L95.6342 10.3921C90.3081 14.5736 85.7369 18.088 85.4774 18.1881C85.2223 18.3183 79.7212 16.35 73.2527 13.8141L61.4875 9.24897L60.1909 1.07213C58.9643 -6.8371 58.8944 -7.1047 58.2712 -7.19812C56.8026 -7.44484 56.7964 -7.07339 58.1771 2.29527C59.3841 10.4853 59.4941 11.0249 60.0323 11.1617C60.3782 11.2342 65.9613 13.3448 72.4596 15.8763L84.2889 20.4629L85.6656 29.1837C86.922 37.0886 87.1064 37.926 87.6282 38.1579C88.0217 38.3469 88.32 38.3029 88.6721 38.004C89.0749 37.6359 89.0099 36.7809 87.9324 28.8497L86.7347 20.1025L96.7379 12.2982C102.23 7.99965 106.966 4.36816 107.277 4.19892C107.752 3.91264 107.684 3.24337 105.849 -9.20788C104.353 -19.3623 103.992 -22.4279 104.255 -22.7136C104.412 -22.8911 107.276 -25.1659 110.587 -27.7226C113.893 -30.3096 116.668 -32.5712 116.76 -32.7701C117.017 -33.302 116.745 -33.9103 116.125 -34.1894C115.697 -34.4043 114.448 -33.5718 110.022 -30.1096C106.991 -27.7177 104.038 -25.4297 103.49 -25.0093L102.505 -24.2467L90.026 -29.108C83.1729 -31.7724 77.5169 -33.9649 77.4617 -33.9259C77.402 -33.9171 74.3675 -31.5554 70.6795 -28.6652Z" fill="#E74C39"/>
<path d="M62.5677 -7.61515C62.3394 -7.30359 62.5528 -5.23534 63.2966 -0.188355C64.1829 5.82572 64.394 6.84446 64.865 7.14558C65.2332 7.36922 65.5061 7.35988 65.8284 7.06536C66.2357 6.72743 66.1662 5.84222 65.3426 -0.366376C64.3689 -7.38656 64.1547 -8.21957 63.2301 -8.0833C63.0213 -8.05253 62.7453 -7.85747 62.5677 -7.61515Z" fill="#E74C39"/>
<path d="M91.8911 6.49732C87.4139 10.0288 83.6377 13.1482 83.5287 13.4422C83.2897 14.0949 83.9125 14.806 84.6582 14.6961C85.1056 14.6302 100.733 2.60044 101.542 1.67841C101.749 1.4317 101.862 0.952 101.753 0.628355C101.374 -0.705238 100.226 -0.0112495 91.8911 6.49732Z" fill="#E74C39"/>
<path d="M-46.7481 28.3193C-46.9974 28.6957 -46.2992 30.5381 -43.4955 36.9489C-41.5226 41.4442 -39.9683 45.1675 -40.0488 45.2411C-40.0951 45.3406 -43.6167 46.8786 -47.8573 48.7078C-56.0833 52.236 -56.7203 52.6695 -55.3491 53.7025C-55.0063 53.9608 -54.5753 53.9899 -54.2054 53.8119C-52.9256 53.191 -39.5612 47.516 -39.2331 47.4676C-39.0542 47.4413 -36.6552 52.5531 -33.7518 59.2271C-30.9049 65.7242 -28.4062 71.0992 -28.2049 71.224C-27.9739 71.3443 -27.522 71.3086 -27.2073 71.1696C-23.3247 69.3931 -3.64801 61.0587 -3.20063 60.9928C-2.90237 60.9488 0.632362 62.1879 4.60828 63.7325C12.0428 66.6201 13.2043 66.8503 13.1828 65.464C13.1863 64.6606 13.0536 64.5875 4.33253 61.2412L-2.05849 58.8174L-2.75841 57.3766C-3.12173 56.5656 -5.58304 51.0306 -8.17081 45.0512C-11.3855 37.7128 -13.0667 34.1626 -13.3739 34.1461C-13.5871 34.1467 -19.0193 36.3677 -25.3824 39.0964C-31.7752 41.8295 -37.1687 44.1065 -37.3984 44.2021C-37.722 44.2807 -38.7109 42.3267 -41.3672 36.2956C-43.2969 31.8865 -45.0049 28.155 -45.1211 27.9869C-45.4906 27.5473 -46.4063 27.744 -46.7481 28.3193ZM-13.2502 38.914C-12.7008 40.1608 -10.5329 45.1523 -8.41261 50.0273C-6.26251 54.8979 -4.57413 58.9102 -4.62487 58.9794C-4.75173 59.1525 -26.4823 68.4381 -26.8999 68.4997C-27.1683 68.5392 -28.988 64.6698 -32.0821 57.5298C-34.7429 51.4684 -36.8511 46.4682 -36.7705 46.3945C-36.6691 46.2561 -14.8369 36.832 -14.4238 36.7402C-14.309 36.6924 -13.7952 37.6974 -13.2502 38.914Z" fill="#E74C39"/>
<path d="M159.018 2.31665C158.942 2.4205 153.428 4.49916 146.748 6.93498C140.097 9.3664 134.344 11.4802 134 11.6236C133.621 11.7412 133.317 12.1566 133.315 12.5583C133.205 14.0875 134.381 39.8516 134.523 39.9851C135.101 40.3939 151.603 44.6316 151.938 44.4278C152.444 44.1371 152.644 43.4283 152.385 42.9106C152.269 42.7425 148.722 41.6287 144.472 40.4951C140.251 39.3571 136.726 38.3944 136.658 38.3427C136.457 38.218 135.515 13.8397 135.718 13.5628C135.866 13.3248 159.144 4.61403 159.311 4.71294C159.589 4.94977 174.505 23.6558 174.644 23.9751C174.743 24.2383 173.076 26.9851 170.549 30.7232C166.091 37.278 165.662 38.2984 167.394 38.2594C168.029 38.2275 168.732 37.4137 171.651 33.0311C175.078 27.9561 175.154 27.8522 176.22 27.8495C179.756 27.8533 194.051 27.0435 194.446 26.8308C195.011 26.5314 194.924 25.5253 194.35 25.1467C194.119 25.0263 190.106 25.0928 185.442 25.2862C180.782 25.5098 176.902 25.6494 176.833 25.5977C176.769 25.5763 176.874 25.2521 177.098 24.9103C177.571 24.1921 177.54 23.363 177.052 23.1569C176.009 22.6931 177.509 22.5338 185.077 22.1904C189.682 22.0058 193.753 21.7146 194.127 21.5668C194.846 21.2756 194.862 20.347 194.125 19.8997C193.757 19.676 177.494 20.1584 175.466 20.4573C175.049 20.5188 173.18 18.3857 168.099 12.0326C164.364 7.36476 161.016 3.25737 160.655 2.87823C160.071 2.22324 159.272 1.97048 159.018 2.31665Z" fill="#E74C39"/>
<path d="M37.1744 36.5773C37.1161 36.8021 37.6235 40.865 38.2929 45.6141L39.4684 54.2102L34.3586 58.2055C31.5449 60.4111 29.1905 62.4255 29.1278 62.62C29.029 63.1903 29.4252 63.8112 29.9933 63.9437C30.2497 64.0294 33.1454 61.9661 36.8378 59.1061C40.3348 56.3675 43.2679 54.1443 43.3574 54.1311C43.596 54.0959 66.6092 63.0246 66.952 63.2828C67.3633 63.5927 70.0104 88.5843 69.6508 89.0387C69.4687 89.2508 65.1063 92.7345 59.9115 96.7731L50.4812 104.122L38.8553 105.465C26.9267 106.822 26.3689 106.966 26.5248 108.024C26.6673 108.991 27.6097 108.975 38.6988 107.712L49.9071 106.43L51.8553 119.235C53.4026 129.321 53.9063 132.118 54.2446 132.346C54.9213 132.802 79.6698 142.339 80.0576 142.282C80.2365 142.256 80.7079 141.939 81.0809 141.576C81.4838 141.208 86.3981 137.334 92.0003 132.957L102.169 125.036L100.083 111.294C98.2474 99.4603 97.9027 97.5349 97.4838 97.3805C97.2229 97.2645 91.9217 95.2051 85.6842 92.7895C79.4811 90.3998 74.2738 88.3573 74.1665 88.2496C74.0294 88.1463 73.087 83.4065 72.0618 77.6908C71.0366 71.9751 69.9651 66.3588 69.7019 65.1934L69.2366 63.0696L75.3265 58.2815C80.4915 54.2472 81.4032 53.4027 81.3991 52.7548C81.3585 51.0317 80.3635 51.518 74.1632 56.3841C70.5005 59.2398 68.0465 60.9909 67.6752 60.953C67.3636 60.9063 62.593 59.1392 57.095 56.9852L47.0784 53.1195L45.8224 44.5971C45.132 39.9127 44.4502 35.9065 44.3206 35.6477C43.9542 35.0223 42.7104 35.2674 42.4251 36.0197C42.2996 36.4087 42.6524 39.6297 43.3517 44.3745C44.4786 52.0206 44.4919 52.1112 43.842 51.8365C43.35 51.6002 42.9921 51.6529 42.3462 52.026L41.5004 52.4903L40.2338 44.3091L38.9328 36.1021L38.0843 36.1345C37.5982 36.1444 37.2283 36.3224 37.1744 36.5773ZM84.2799 94.633L95.7589 99.1168L97.6162 111.719L99.4735 124.322L89.53 132.117L79.5521 139.887L67.6586 135.279L55.7607 130.64L53.9764 118.12L52.2175 105.565L62.0507 97.8474C67.4573 93.5922 72.0971 90.1294 72.3401 90.1245C72.5876 90.1497 77.9739 92.1658 84.2799 94.633Z" fill="#E74C39"/>
<path d="M64.079 100.235C56.3166 106.288 55.3751 107.137 55.4255 107.686C55.4656 107.958 56.4597 108.707 56.7281 108.667C56.8474 108.65 60.7651 105.664 65.4079 102.015C72.1857 96.7243 73.891 95.2687 73.8705 94.7159C73.8918 94.0335 73.3344 93.5598 72.7081 93.6521C72.5589 93.6741 68.6711 96.6556 64.079 100.235Z" fill="#E74C39"/>
<path d="M91.4166 101.702C90.9345 102.36 90.9671 102.787 92.3834 112.398C93.3099 118.684 94.0037 122.565 94.2406 122.931C94.7308 123.569 95.9924 123.445 96.1628 122.741C96.2122 122.455 95.5935 117.637 94.7651 112.016C93.4556 103.131 93.1866 101.719 92.7111 101.388C92.0255 100.871 92.0255 100.871 91.4166 101.702Z" fill="#E74C39"/>
<path d="M58.7658 127.048C58.4613 127.463 58.4716 127.74 58.7382 128.102C59.1256 128.662 78.0182 136.098 78.8965 136.062C79.6555 136.042 80.114 135.018 79.6372 134.47C79.2721 134.061 60.858 126.77 59.7353 126.596C59.4237 126.55 58.9986 126.767 58.7658 127.048Z" fill="#E74C39"/>
<path d="M98.6341 49.5662C98.44 49.9036 98.4294 50.2449 98.6827 50.5163C98.8674 50.7361 101.57 51.9125 104.674 53.1225L110.33 55.315L111.9 64.9337L113.465 74.5221L114.36 74.3902L115.255 74.2584L114.022 65.2694L112.763 56.315L113.677 56.52C115.757 56.9854 116.087 55.3002 114.099 54.4199C110.874 53.0116 99.8453 48.8937 99.4278 48.9552C99.1593 48.9948 98.8326 49.2591 98.6341 49.5662Z" fill="#E74C39"/>
<path d="M115.98 53.1237C115.782 53.4308 116.138 56.4662 117.257 63.6501C118.737 73.066 118.864 73.7265 119.385 73.7424C120.797 73.8122 120.787 73.5358 119.232 62.9885C117.834 53.499 117.737 53.05 117.156 52.8269C116.352 52.544 116.322 52.5484 115.98 53.1237Z" fill="#E74C39"/>
<path d="M164.549 55.9703C164.058 56.5676 164.067 56.628 166.46 62.9448C167.77 66.4571 168.997 69.6112 169.144 69.9909C169.391 70.6338 168.838 71.4256 164.38 76.7451C160.49 81.3634 159.348 82.9212 159.428 83.4652C159.562 84.3718 160.386 84.59 161.137 83.8927C161.463 83.6284 163.775 80.9101 166.315 77.8803C168.855 74.8505 171.108 72.3569 171.287 72.3306C171.734 72.2646 195.893 76.1457 196.227 76.3435C196.497 76.5199 205.001 99.0734 205.078 99.8031C205.114 100.045 202.389 103.473 199.015 107.459C195.641 111.446 191.983 115.783 190.865 117.09L188.842 119.488L176.41 117.429C169.601 116.302 163.875 115.293 163.738 115.19C163.601 115.087 162.31 111.911 160.9 108.136C159.491 104.36 158.127 101.103 157.883 100.892C157.261 100.397 156.22 100.983 156.34 101.799C156.456 102.584 161.502 116.353 161.855 116.888C162.01 117.112 166.562 118.016 171.962 118.888C177.367 119.789 183.583 120.818 185.769 121.176L189.739 121.856L197.728 112.373C202.114 107.188 206.004 102.569 206.398 102.141L207.075 101.361L215.447 102.752C220.071 103.522 224.113 104.069 224.462 103.956C224.841 103.838 225.035 103.501 225.014 102.948C224.975 102.058 226.422 102.37 211.088 99.8438L207.369 99.2185L202.707 86.8134C200.118 80.0004 198.01 74.3825 198.006 74.3522C198.006 74.3522 196.972 74.1649 195.756 73.9736C192.58 73.5153 171.622 70.0579 171.554 70.0063C171.52 69.9804 170.44 67.2061 169.178 63.8103C166.263 56.0263 166.077 55.5906 165.514 55.4884C165.257 55.4027 164.837 55.6499 164.549 55.9703Z" fill="#E74C39"/>
<path d="M167.898 80.7656C165.49 83.6525 163.454 86.1757 163.37 86.4351C163.225 87.1049 164.485 88 165.002 87.5841C166.229 86.6005 174.011 76.9621 173.945 76.5088C173.878 76.0555 172.97 75.479 172.463 75.5538C172.374 75.567 170.341 77.9044 167.898 80.7656Z" fill="#E74C39"/>
<path d="M23.3108 108.96L24.2461 115.307L24.9917 115.197L25.7374 115.087L24.8021 108.741L23.8667 102.394L23.1211 102.504L22.3754 102.614L23.3108 108.96Z" fill="#E74C39"/>
<path d="M192.374 79.5668C192.104 80.008 192.656 81.6867 195.424 89.0909C199.891 101 199.571 100.275 200.436 100.148C200.823 100.09 201.24 99.813 201.353 99.5492C201.458 99.225 200.219 95.5787 197.908 89.4041C195.938 84.1055 194.204 79.575 194.045 79.3206C193.751 78.7772 192.767 78.9222 192.374 79.5668Z" fill="#E74C39"/>
<path d="M165.962 110.848C165.48 111.506 165.758 112.36 166.549 112.553C167.694 112.878 187.109 116.007 187.557 115.941C188.183 115.848 188.449 114.759 187.947 114.247C187.63 113.954 167.102 110.31 166.356 110.419C166.326 110.424 166.14 110.606 165.962 110.848Z" fill="#E74C39"/>
<path d="M35.9956 21.343C34.6606 22.0029 33.2531 24.0321 33.024 25.5789C32.3468 30.4957 35.6159 34.275 40.0302 33.6245C41.9689 33.3387 43.2905 32.5882 44.2204 31.2469C46.2114 28.4215 45.509 23.8624 42.7666 21.7963C40.8812 20.3759 38.2957 20.2012 35.9956 21.343ZM41.2495 22.6684C42.6074 23.6107 43.1853 24.6372 43.457 26.4807C43.9024 29.5028 42.8782 31.4447 40.4561 32.1722C38.911 32.6469 36.7269 31.8881 35.7675 30.5473C34.9242 29.3748 34.4325 26.4521 34.8553 25.1855C35.1736 24.2431 36.1123 22.9623 36.7881 22.5848C37.0089 22.4288 37.929 22.2623 38.8029 22.1952C39.975 22.0843 40.6027 22.2079 41.2495 22.6684Z" fill="#61279E"/>
<path d="M199.598 17.9507C196.119 20.1926 196.09 26.4033 199.518 28.9859C203.083 31.6718 208.673 29.4893 209.286 25.1687C209.636 22.5851 208.688 19.6679 207.025 18.3073C205.259 16.8693 201.577 16.7017 199.598 17.9507ZM204.952 18.9217C206.188 19.4497 207.226 21.1185 207.507 23.0224C207.943 25.9841 206.537 28.2293 204.002 28.603C201.079 29.0337 199.329 27.5007 198.83 24.1159C198.429 21.3959 198.997 20.0772 201.029 18.9749C202.274 18.3282 203.519 18.2991 204.952 18.9217Z" fill="#61279E"/>
<path d="M84.0186 47.3666L84.9316 53.562L85.8264 53.4302L86.6914 53.3027L86.0816 48.5447L85.4718 43.7868L89.3922 48.0568C92.9521 51.9477 93.4022 52.3137 94.1777 52.1994L95.0725 52.0675L94.1594 45.8721L93.2463 39.6767L92.5007 39.7866L91.755 39.8965L92.4125 44.7709L93.0401 49.6498L89.0421 45.2676C85.2632 41.1311 84.9845 40.8943 84.0898 41.0262L83.1055 41.1712L84.0186 47.3666Z" fill="#61279E"/>
<path d="M156.287 47.6775L157.223 54.024L157.968 53.9141L158.714 53.8042L157.992 48.9083C157.476 45.4026 157.374 44.0899 157.648 44.2965C157.854 44.4515 159.691 46.373 161.726 48.605C165.097 52.2459 165.552 52.6421 166.327 52.5278L167.192 52.4003L166.355 46.1011L165.493 39.8364L164.598 39.9683L163.703 40.1002L164.425 44.996L165.146 49.8919L161.084 45.4884C157.46 41.576 156.933 41.098 156.187 41.2079L155.352 41.331L156.287 47.6775Z" fill="#61279E"/>
<path d="M16.7555 70.6808L17.6953 77.0576L18.5901 76.9257L19.4849 76.7938L18.8363 71.9798L18.2221 67.1916L22.1768 71.4875C25.7322 75.3482 26.2255 75.8004 27.001 75.6861L27.8361 75.563L26.9008 69.2165L25.9654 62.87L25.2198 62.9799L24.4742 63.0898L25.1957 67.9857C25.7124 71.4914 25.8144 72.8041 25.5402 72.5975C25.3345 72.4425 23.4971 70.521 21.4617 68.289C18.1253 64.6739 17.6365 64.2519 16.7581 64.2887L15.8202 64.3343L16.7555 70.6808Z" fill="#61279E"/>
<path d="M19.0333 85.7223L20.0492 91.9952L20.8977 91.9628L21.7163 91.9347L21.2709 88.9126L20.8211 85.8602L24.1019 85.3767L27.3529 84.8976L27.8745 87.8159L28.4004 90.7644L29.2489 90.732L30.0676 90.7039L29.1322 84.3574L28.1924 77.9807L27.2977 78.1126L26.4029 78.2444L26.7815 80.8133L27.1601 83.3821L23.8792 83.8656L20.5984 84.3492L20.2198 81.7803L19.8412 79.2115L18.9464 79.3434L18.0516 79.4752L19.0333 85.7223Z" fill="#61279E"/>
<path d="M115.082 76.5997C111.438 78.341 110.74 83.9402 113.768 87.3229C115.924 89.7532 120.707 89.5422 122.913 86.9322C125.089 84.3266 124.351 78.9082 121.567 76.9718C119.837 75.7755 117.132 75.6184 115.082 76.5997ZM119.734 77.7669C121.166 78.3894 122.007 79.7477 122.341 82.0144C122.652 84.1299 122.319 85.3832 121.145 86.5135C120.081 87.5658 117.942 87.9427 116.484 87.3547C114.372 86.4618 113.002 82.9583 113.827 80.4901C114.597 78.0608 117.45 76.7448 119.734 77.7669Z" fill="#61279E"/>
<path d="M13.496 103.984C10.8785 104.833 9.46347 107.018 9.5376 110.002C9.60186 112.092 10.7991 114.633 12.2389 115.718C15.1184 117.887 20.0267 116.454 21.0085 113.19C21.3926 111.868 21.2065 111.432 20.252 111.573C19.7748 111.643 19.5166 111.959 19.3716 112.629C19.065 114.063 17.6641 115.104 15.8821 115.212C13.1323 115.37 11.3221 113.012 11.32 109.276C11.3171 106.776 13.509 104.693 15.8902 104.928C16.667 105.03 17.8401 105.753 18.5538 106.666C19.0008 107.218 20.2521 106.817 20.1586 106.183C20.0784 105.639 18.4361 104.213 17.564 103.879C16.4995 103.48 14.8578 103.506 13.496 103.984Z" fill="#61279E"/>
<path d="M148.295 92.7019L149.23 99.0484L149.976 98.9385L150.722 98.8286L150.064 93.9542L149.437 89.0753L153.435 93.4574C157.214 97.594 157.492 97.8308 158.417 97.6945L159.371 97.5539L158.385 91.2766L157.374 85.0339L156.628 85.1438L155.882 85.2537L156.442 90.0809L157.001 94.9081L154.308 91.9392C149.477 86.6609 148.911 86.1268 148.105 86.2455L147.36 86.3554L148.295 92.7019Z" fill="#61279E"/>
<path d="M230.174 99.2851C228.712 100.118 227.486 101.935 227.284 103.663C226.957 106.614 228.471 110.065 230.619 111.2C231.543 111.681 232.064 111.697 234.152 111.39C236.15 111.095 236.729 110.886 237.339 110.271C238.03 109.583 239.275 106.867 239.005 106.691C238.937 106.639 238.501 106.58 238.036 106.525C237.358 106.471 237.188 106.558 237.246 106.95C237.366 107.766 235.732 109.706 234.57 110.093C233.208 110.571 231.388 110.006 230.288 108.748C229.3 107.627 228.706 104.627 229.147 102.864C229.9 99.9121 234.747 98.889 235.97 101.395C236.272 101.999 237.556 102.026 237.804 101.434C238.031 100.906 236.584 99.3593 235.451 98.9087C234.087 98.3378 231.585 98.5213 230.174 99.2851Z" fill="#61279E"/>
<path d="M241.087 104.068L242.022 110.415L242.844 110.201L243.636 109.992L243.082 105.195L242.523 100.368L246.52 104.75C250.046 108.615 250.608 109.119 251.354 109.009L252.159 108.89L251.223 102.544L250.288 96.1971L249.542 96.307L248.797 96.4169L249.459 101.322L250.091 106.231L246.088 101.818C242.31 97.6818 242.031 97.445 241.132 97.5466L240.147 97.6917L241.087 104.068Z" fill="#61279E"/>
</g>
<defs>
<clipPath id="clip0_506_26312">
<rect width="340.372" height="195.201" fill="white" transform="translate(-99.1777 -21.2013) rotate(-8.38382)"/>
</clipPath>
</defs>
</svg>
