<svg xmlns="http://www.w3.org/2000/svg" width="118" height="106" viewBox="0 0 118 106" fill="none">
    <path
        d="M92.4231 9.43879C90.2155 10.6995 88.3209 11.8441 88.2385 11.9768C88.0244 12.3418 88.2385 12.7731 88.6504 12.7731C88.8481 12.7731 90.6603 11.8441 92.6702 10.6995C94.6966 9.55491 96.443 8.62596 96.5748 8.62596C96.6901 8.64255 99.4578 10.1521 102.72 11.9934L108.651 15.3443V22.2119V29.0795L102.802 32.3972C99.5896 34.2219 96.8384 35.748 96.6901 35.7812C96.5418 35.831 93.7246 34.338 90.4297 32.4635L84.4329 29.0795L84.3834 24.584C84.3505 20.2379 84.334 20.0886 84.0045 19.989C83.2302 19.7402 83.1973 19.9393 83.1973 25.0817C83.1973 29.5771 83.2137 29.8757 83.4938 29.9918C83.675 30.0582 86.5252 31.6341 89.8366 33.5086L95.8664 36.9092L95.9158 41.7033C95.9652 46.0494 95.9982 46.5139 96.2617 46.6798C96.4594 46.8125 96.6242 46.8125 96.8384 46.6798C97.0855 46.5139 97.1184 46.0494 97.1679 41.7033L97.2173 36.9092L103.247 33.5086C106.558 31.6341 109.409 30.0582 109.59 29.9918C109.87 29.8757 109.886 29.5108 109.886 22.6764C109.886 17.1026 109.936 15.4272 110.101 15.2945C110.199 15.2116 111.929 14.2163 113.923 13.1048C115.916 11.9768 117.597 10.9815 117.662 10.882C117.844 10.6166 117.745 10.2682 117.432 10.0691C117.218 9.91985 116.476 10.2682 113.807 11.7778C111.979 12.8228 110.199 13.8181 109.87 14.0006L109.277 14.3324L102.918 10.7327C99.4249 8.75867 96.5418 7.133 96.5089 7.14959C96.4759 7.14959 94.6472 8.17807 92.4231 9.43879Z"
        fill="#61279E" />
    <path
        d="M96.0482 10.8488C95.9329 11.0147 95.9164 11.1972 95.9987 11.363C96.2294 11.7612 106.114 17.2685 106.493 17.2188C106.724 17.1856 106.856 17.0197 106.889 16.7543C106.938 16.3562 106.592 16.1239 101.88 13.4698C99.1125 11.8939 96.7072 10.6166 96.5424 10.6166C96.3777 10.6166 96.1635 10.7327 96.0482 10.8488Z"
        fill="#61279E" />
    <path
        d="M86.3598 20.1052C86.2115 20.2545 86.1621 21.3825 86.1621 24.1527C86.1621 27.4538 86.1951 28.0178 86.4257 28.2169C86.6069 28.3662 86.7552 28.3828 86.9529 28.2501C87.2 28.1008 87.233 27.6197 87.2824 24.2191C87.3153 20.3706 87.2659 19.9061 86.7552 19.9061C86.6399 19.9061 86.4751 19.989 86.3598 20.1052Z"
        fill="#61279E" />
    <path
        d="M101.089 30.0084C98.3875 31.5512 96.0976 32.928 96.0152 33.0773C95.834 33.4091 96.114 33.8404 96.5259 33.8404C96.773 33.8404 106.18 28.615 106.691 28.1837C106.823 28.0676 106.921 27.8188 106.889 27.6363C106.79 26.8898 106.114 27.1718 101.089 30.0084Z"
        fill="#61279E" />
    <path
        d="M24.3986 30.7549C24.2338 30.9374 24.4645 31.9825 25.4694 35.6485C26.1778 38.2197 26.7215 40.343 26.6721 40.3762C26.6391 40.426 24.6127 40.9734 22.1745 41.6203C17.4462 42.8645 17.0673 43.0469 17.7263 43.7105C17.891 43.8764 18.1217 43.9261 18.3358 43.8598C19.0772 43.6275 26.7544 41.6369 26.9357 41.6369C27.0345 41.6369 27.9242 44.5731 28.9621 48.3884C29.9835 52.1042 30.9061 55.1897 31.0049 55.2726C31.1203 55.3555 31.3674 55.3721 31.5486 55.3224C33.7892 54.6754 45.0908 51.7559 45.338 51.7559C45.5027 51.7559 47.3149 52.7014 49.3413 53.846C53.1305 55.9859 53.7401 56.2016 53.8389 55.4551C53.9048 55.0238 53.8389 54.974 49.3908 52.4858L46.1288 50.6776L45.8652 49.8482C45.7334 49.3837 44.8437 46.2153 43.9211 42.7981C42.7679 38.6012 42.1419 36.5609 41.9771 36.5277C41.8618 36.5111 38.7481 37.2742 35.0907 38.2363C31.4168 39.1984 28.3195 39.9947 28.1877 40.0278C28.0065 40.0444 27.6276 38.9164 26.6721 35.466C25.9801 32.9446 25.3541 30.8047 25.3047 30.7052C25.1399 30.4397 24.6292 30.4729 24.3986 30.7549ZM41.6641 39.0989C41.8618 39.8122 42.6361 42.6654 43.3939 45.4523C44.1683 48.2391 44.7614 50.5283 44.7284 50.5615C44.646 50.6444 32.1582 53.9124 31.9275 53.9124C31.7792 53.9124 31.1038 51.6895 30 47.6088C29.0444 44.1418 28.3031 41.2886 28.3525 41.2554C28.4184 41.189 40.9722 37.8548 41.2028 37.8382C41.2687 37.8216 41.4664 38.4022 41.6641 39.0989Z"
        fill="#61279E" />
    <path
        d="M69.1101 41.836C69.0607 41.9521 69.0113 44.175 68.9948 46.7793L68.9454 51.4904L65.8646 53.2322C64.1677 54.1944 62.7344 55.0901 62.685 55.1897C62.5861 55.4883 62.7509 55.8532 63.0474 55.9693C63.1792 56.0357 64.9091 55.1565 67.1331 53.9124C69.2419 52.718 71.0047 51.7559 71.0541 51.7559C71.1859 51.7559 82.916 58.3746 83.0807 58.5405C83.2784 58.7396 82.7183 72.3753 82.4876 72.5909C82.3723 72.6904 79.7363 74.2166 76.6061 75.975L70.9223 79.1765L64.5301 78.9775C57.9732 78.7618 57.6602 78.795 57.6602 79.3756C57.6602 79.9064 58.1709 79.9728 64.2665 80.1718L70.4281 80.3709L70.461 87.4044C70.494 92.9449 70.5434 94.4876 70.7082 94.6369C71.0377 94.9355 83.6573 102.019 83.8715 102.019C83.9703 102.019 84.2504 101.886 84.4811 101.72C84.7282 101.554 87.6936 99.8623 91.071 97.9546L97.1996 94.5042L97.1666 86.9565C97.1172 80.4538 97.0843 79.3922 96.8701 79.276C96.7383 79.1931 94.0364 77.667 90.8568 75.8754C87.6936 74.1005 85.0412 72.5909 84.9918 72.5246C84.9259 72.4582 84.7941 69.8372 84.6952 66.6854C84.5964 63.5336 84.4646 60.4316 84.4152 59.7847L84.3328 58.6069L88.0067 56.5167C91.1204 54.7584 91.6805 54.3768 91.73 54.0285C91.8453 53.0995 91.2687 53.282 87.5289 55.4053C85.3213 56.6494 83.855 57.3959 83.6573 57.3462C83.4926 57.2964 81.0543 55.9693 78.2536 54.3768L73.1464 51.507V46.8291C73.1464 44.2579 73.097 42.0516 73.0476 41.9023C72.8993 41.5374 72.2074 41.5706 71.9932 41.9521C71.8943 42.1512 71.8284 43.9095 71.8284 46.5139C71.8284 50.7108 71.8284 50.7606 71.499 50.5615C71.2518 50.3956 71.0541 50.3956 70.6752 50.5449L70.181 50.7274L70.148 46.2319L70.0986 41.7199L69.6373 41.6701C69.3737 41.6369 69.1595 41.7033 69.1101 41.836ZM89.9507 76.7546L95.7992 80.0723V86.9897V93.907L89.8024 97.3077L83.7891 100.692L77.7264 97.2745L71.6637 93.8407L71.6967 86.9731L71.7461 80.0889L77.677 76.7214C80.939 74.8635 83.7232 73.3706 83.855 73.3872C83.9868 73.4203 86.7381 74.9299 89.9507 76.7546Z"
        fill="#61279E" />
    <path
        d="M78.5844 78.1646C73.9056 80.8022 73.329 81.1837 73.3125 81.4823C73.3125 81.6316 73.7903 82.1127 73.9385 82.1127C74.0044 82.1127 76.3603 80.8188 79.161 79.2263C83.2468 76.9205 84.2847 76.2735 84.3176 75.975C84.3835 75.61 84.1199 75.3114 83.774 75.3114C83.6916 75.3114 81.3522 76.6053 78.5844 78.1646Z"
        fill="#61279E" />
    <path
        d="M93.2475 81.1174C92.9344 81.4325 92.918 81.6648 92.918 86.9399C92.918 90.3903 92.9839 92.5302 93.0827 92.7458C93.2969 93.1274 93.9888 93.1605 94.1371 92.7956C94.1865 92.6463 94.2359 90.0087 94.2359 86.9233C94.2359 82.0463 94.203 81.2667 93.9724 81.051C93.6429 80.7192 93.6429 80.7192 93.2475 81.1174Z"
        fill="#61279E" />
    <path
        d="M73.5751 92.1487C73.3774 92.3477 73.361 92.497 73.4763 92.7127C73.641 93.0444 83.2623 98.5352 83.7401 98.585C84.1519 98.6347 84.4814 98.1205 84.2672 97.7887C84.1025 97.5399 74.7284 92.1652 74.1353 91.9828C73.9705 91.933 73.7234 92.0159 73.5751 92.1487Z"
        fill="#61279E" />
    <path
        d="M101.304 53.6801C101.172 53.846 101.139 54.0285 101.254 54.1943C101.336 54.3271 102.704 55.1731 104.285 56.0688L107.169 57.6945L107.251 62.9862L107.333 68.2613H107.828H108.322L108.371 63.3346L108.404 58.4244L108.882 58.6069C109.969 59.0216 110.282 58.1424 109.277 57.512C107.646 56.5001 102.012 53.4147 101.781 53.4147C101.633 53.4147 101.435 53.5308 101.304 53.6801Z"
        fill="#61279E" />
    <path
        d="M110.396 56.9646C110.265 57.1139 110.215 58.7728 110.248 62.7208C110.298 67.8964 110.314 68.2613 110.594 68.3111C111.352 68.4604 111.368 68.3111 111.368 62.5217C111.368 57.313 111.352 57.0641 111.055 56.8983C110.644 56.6826 110.627 56.6826 110.396 56.9646Z"
        fill="#61279E" />
    <path d="M55.8496 79.6244V83.108H56.2615H56.6733V79.6244V76.1408H56.2615H55.8496V79.6244Z" fill="#61279E" />
    <path
        d="M80.8906 15.3277V18.7449H81.3025H81.7144V16.1737C81.7144 14.7637 81.7638 13.6025 81.8462 13.6025C81.9121 13.6191 82.7358 14.7637 83.6913 16.1737C85.3223 18.5956 85.4541 18.7449 85.9649 18.7449H86.492V15.3443V11.9437H85.9978H85.52L85.4706 14.5315L85.4212 17.1193L83.6749 14.5812C82.1098 12.292 81.8791 12.0266 81.4178 11.9769L80.8906 11.9271V15.3277Z"
        fill="#E74C39" />
    <path
        d="M21.416 27.205V30.6886H21.9103H22.4045V29.1127V27.5368H24.052H25.6995V27.1221V26.7074H24.052H22.4045V25.6291V24.5509H24.2991H26.1937V24.1362V23.7215H23.8049H21.416V27.205Z"
        fill="#E74C39" />
    <path
        d="M69.6873 33.5584C68.913 33.8072 67.9904 34.7859 67.7433 35.5987C66.9855 38.1865 68.4517 40.4757 70.89 40.4757C71.9609 40.4757 72.7352 40.1771 73.3447 39.5302C74.6462 38.1699 74.6298 35.6651 73.3118 34.338C72.4057 33.4257 71.0218 33.1271 69.6873 33.5584ZM72.4222 34.6864C73.0811 35.3002 73.3118 35.8973 73.3118 36.9092C73.3118 38.5681 72.6034 39.5302 71.236 39.7293C70.3628 39.862 69.2425 39.2814 68.8307 38.4851C68.4682 37.7884 68.4353 36.1793 68.7648 35.5324C69.0119 35.0513 69.6214 34.4376 70.0168 34.2883C70.1486 34.2219 70.6594 34.2053 71.1371 34.2385C71.7796 34.2717 72.1091 34.3878 72.4222 34.6864Z"
        fill="#E74C39" />
    <path
        d="M11.0371 44.9546V48.4382H11.449C11.8608 48.4382 11.8608 48.4382 11.8608 46.8623V45.303L13.5577 45.2532C15.1558 45.2034 15.2382 45.1868 15.2876 44.8385C15.337 44.4735 15.2876 44.4735 13.6401 44.4238L11.9432 44.374L11.8938 43.3289L11.8444 42.3005H13.8378H15.8148V41.8857V41.471H13.4259H11.0371V44.9546Z"
        fill="#E74C39" />
    <path
        d="M93.5762 51.3412V54.7418H94.0704H94.5482L94.5976 52.1374L94.647 49.533L96.4263 52.1374C98.0408 54.5096 98.255 54.7418 98.6833 54.7418H99.1776V51.3412V47.9405H98.7657H98.3539L98.3209 50.6113L98.2715 53.282L96.4593 50.6113C94.7459 48.0898 94.6141 47.9405 94.1198 47.9405H93.5762V51.3412Z"
        fill="#E74C39" />
    <path
        d="M55.3555 58.5405V62.0407H55.8497H56.344L56.3769 59.4031L56.4263 56.7822L58.2221 59.4031C59.8366 61.7587 60.0672 62.0407 60.4956 62.0407H60.9569V58.5571V55.0735H60.545H60.1331V57.7609C60.1331 59.6851 60.0837 60.3984 59.9519 60.2657C59.8531 60.1662 59.0129 58.9884 58.0903 57.6282C56.5746 55.4219 56.344 55.1565 55.8662 55.1067L55.3555 55.057V58.5405Z"
        fill="#E74C39" />
    <path
        d="M55.3884 66.8015L55.4378 70.2519L55.8991 70.3017L56.344 70.3515V68.6926V67.0172H58.1562H59.9519L60.0014 68.6263L60.0508 70.2519L60.5121 70.3017L60.9569 70.3515V66.8679V63.3677H60.4626H59.9684V64.7778V66.1878H58.1562H56.344V64.7778V63.3677H55.8497H55.3555L55.3884 66.8015Z"
        fill="#E74C39" />
    <path
        d="M108.04 69.5055C105.932 70.1524 105.108 73.1052 106.475 75.1621C107.447 76.6385 110.05 76.9039 111.451 75.6764C112.835 74.4488 112.867 71.4795 111.517 70.2188C110.676 69.4391 109.227 69.1405 108.04 69.5055ZM110.462 70.5008C111.187 70.9487 111.533 71.7449 111.533 72.9891C111.533 74.1502 111.253 74.7972 110.528 75.3114C109.869 75.7925 108.683 75.8257 107.942 75.3944C106.871 74.7474 106.409 72.7568 107.052 71.4961C107.661 70.252 109.309 69.7709 110.462 70.5008Z"
        fill="#E74C39" />
    <path
        d="M50.9395 76.174C49.4567 76.4229 48.5177 77.4845 48.32 79.0936C48.1882 80.2216 48.633 81.6814 49.3249 82.3781C50.7088 83.7715 53.4766 83.39 54.2674 81.7146C54.5804 81.0344 54.5145 80.7856 53.9873 80.7856C53.7237 80.7856 53.559 80.9349 53.4272 81.2833C53.1471 82.0297 52.3069 82.4776 51.3349 82.3947C49.8357 82.262 49.0449 80.852 49.3414 78.8448C49.5391 77.5011 50.89 76.5556 52.1586 76.8707C52.5705 76.9869 53.1471 77.4679 53.4601 78.0153C53.6578 78.3471 54.3662 78.231 54.3662 77.8826C54.3662 77.584 53.5919 76.6883 53.1471 76.4394C52.6034 76.1409 51.7138 76.0247 50.9395 76.174Z"
        fill="#E74C39" />
</svg>