<svg width="361" height="358" viewBox="0 0 361 358" fill="none" xmlns="http://www.w3.org/2000/svg">
<g clip-path="url(#clip0_506_26347)">
<path d="M266.91 54.1538C260.966 58.4105 255.883 62.2434 255.686 62.6481C255.18 63.7574 255.917 64.9332 257.095 64.8141C257.66 64.7569 262.57 61.5668 267.982 57.7005C273.442 53.8295 278.163 50.6584 278.54 50.6203C278.875 50.6345 287.224 54.1663 297.082 58.5073L315.007 66.4087L317.002 86.1183L318.996 105.828L303.243 117.041C294.591 123.207 287.17 128.383 286.756 128.521C286.346 128.706 277.861 125.237 267.898 120.81L249.775 112.832L248.329 99.9449C246.972 87.4812 246.882 87.0575 245.911 86.8672C243.626 86.377 243.589 86.9578 245.083 101.716C246.388 114.618 246.522 115.47 247.356 115.722C247.893 115.86 256.498 119.559 266.507 123.981L284.729 131.996L286.262 145.741C287.666 158.2 287.895 159.523 288.696 159.923C289.3 160.247 289.771 160.199 290.345 159.756C291.003 159.209 290.962 157.866 289.841 145.378L288.59 131.606L304.837 120.102C313.758 113.765 321.446 108.418 321.945 108.175C322.712 107.76 322.653 106.708 320.668 87.094C319.05 71.0978 318.704 66.2751 319.137 65.8466C319.395 65.58 324.05 62.2232 329.425 58.4569C334.796 54.6431 339.31 51.3006 339.469 50.9959C339.91 50.1817 339.526 49.2106 338.574 48.7298C337.918 48.3633 335.9 49.5775 328.71 54.6817C323.787 58.2099 318.991 61.5809 318.102 62.1999L316.503 63.3236L297.281 54.832C286.725 50.1768 278.012 46.3451 277.923 46.4023C277.829 46.4118 272.901 49.8924 266.91 54.1538Z" fill="#87A9E2"/>
<path d="M277.679 57.1522C277.397 57.6616 277.403 58.1901 277.687 58.6424C278.462 59.7182 308.314 72.665 309.383 72.4126C310.033 72.2507 310.361 71.7365 310.378 70.9653C310.404 69.8084 309.348 69.2419 295.109 62.9875C286.741 59.2652 279.495 56.2951 279.024 56.3428C278.553 56.3904 277.975 56.7856 277.679 57.1522Z" fill="#87A9E2"/>
<path d="M252.678 86.519C252.298 86.9904 252.484 90.242 253.289 98.1925C254.248 107.666 254.505 109.276 255.223 109.78C255.784 110.156 256.212 110.161 256.739 109.723C257.402 109.223 257.356 107.833 256.51 98.0589C255.487 87.0044 255.211 85.6856 253.751 85.8334C253.421 85.8667 252.974 86.1524 252.678 86.519Z" fill="#87A9E2"/>
<path d="M297.652 110.681C290.377 115.89 284.232 120.504 284.04 120.956C283.618 121.961 284.544 123.117 285.721 122.998C286.427 122.927 311.798 105.21 313.132 103.824C313.475 103.453 313.685 102.71 313.538 102.196C313.039 100.082 311.19 101.087 297.652 110.681Z" fill="#87A9E2"/>
<path d="M78.6693 135.004C78.2514 135.575 79.2142 138.508 83.1512 148.738C85.9227 155.913 88.0933 161.849 87.9617 161.959C87.8819 162.111 82.249 164.268 75.4677 166.83C62.3144 171.768 61.2844 172.402 63.3606 174.115C63.8797 174.544 64.5534 174.62 65.1463 174.367C67.1979 173.487 88.5632 165.553 89.0812 165.501C89.3637 165.472 92.7592 173.641 96.8338 184.291C100.832 194.66 104.365 203.248 104.672 203.457C105.026 203.662 105.737 203.638 106.24 203.443C112.457 200.938 143.912 189.291 144.618 189.219C145.089 189.171 150.543 191.361 156.668 194.06C168.12 199.105 169.925 199.548 169.99 197.377C170.053 196.12 169.851 195.996 156.414 190.142L146.565 185.896L145.571 183.592C145.059 182.297 141.597 173.461 137.967 163.921C133.452 152.209 131.07 146.535 130.59 146.487C130.255 146.473 121.577 149.564 111.403 153.383C101.181 157.206 92.5598 160.387 92.1927 160.521C91.6795 160.621 90.2689 157.493 86.5357 147.867C83.8258 140.831 81.4149 134.87 81.2448 134.599C80.6968 133.885 79.2467 134.128 78.6693 135.004ZM130.442 153.957C131.214 155.947 134.256 163.911 137.231 171.69C140.254 179.465 142.614 185.863 142.529 185.968C142.318 186.229 107.573 199.22 106.914 199.287C106.49 199.33 103.914 193.145 99.574 181.753C95.836 172.08 92.8884 164.106 93.0201 163.996C93.1892 163.787 128.103 150.587 128.757 150.472C128.941 150.406 129.674 152.015 130.442 153.957Z" fill="#87A9E2"/>
<path d="M403.222 108.896C403.095 109.053 394.299 111.915 383.648 115.253C373.043 118.587 363.87 121.487 363.32 121.687C362.717 121.844 362.21 122.473 362.178 123.101C361.896 125.486 361.893 165.887 362.106 166.105C362.983 166.786 388.557 174.587 389.098 174.292C389.912 173.873 390.277 172.778 389.908 171.949C389.738 171.678 384.255 169.684 377.671 167.609C371.133 165.529 365.675 163.772 365.572 163.687C365.265 163.477 365.537 125.262 365.875 124.843C366.124 124.481 403.254 112.5 403.508 112.667C403.928 113.057 425.978 143.386 426.173 143.896C426.31 144.314 423.498 148.495 419.267 154.165C411.806 164.106 411.06 165.673 413.778 165.734C414.777 165.73 415.937 164.506 420.83 157.855C426.568 150.156 426.695 149.999 428.367 150.07C433.911 150.327 456.387 150.072 457.022 149.768C457.93 149.339 457.865 147.759 456.992 147.125C456.639 146.921 450.341 146.74 443.012 146.712C435.688 146.732 429.594 146.676 429.49 146.59C429.391 146.552 429.578 146.052 429.954 145.533C430.747 144.443 430.758 143.143 430.009 142.786C428.405 141.986 430.77 141.843 442.662 141.842C449.897 141.88 456.302 141.712 456.9 141.508C458.048 141.103 458.139 139.651 457.016 138.899C456.455 138.523 430.917 138.125 427.715 138.449C427.055 138.516 424.278 135.045 416.766 124.744C411.243 117.174 406.287 110.51 405.749 109.891C404.88 108.824 403.645 108.372 403.222 108.896Z" fill="#87A9E2"/>
<path d="M209.687 153.874C209.579 154.221 210.084 160.615 210.793 168.094L212.02 181.629L203.72 187.519C199.149 190.771 195.313 193.756 195.2 194.056C195.004 194.942 195.581 195.941 196.463 196.189C196.859 196.341 201.548 193.318 207.543 189.104C213.224 185.066 217.983 181.795 218.124 181.781C218.501 181.743 253.95 197.346 254.469 197.774C255.092 198.288 257.451 237.584 256.855 238.269C256.554 238.588 249.463 243.731 241.027 249.682L225.711 260.514L207.382 261.792C188.578 263.069 187.693 263.255 187.862 264.922C188.016 266.445 189.495 266.488 206.976 265.296L224.645 264.085L226.782 284.261C228.485 300.153 229.074 304.566 229.588 304.947C230.617 305.708 268.744 322.387 269.356 322.325C269.639 322.296 270.401 321.835 271.012 321.292C271.67 320.744 279.654 315.031 288.754 308.579L305.269 296.904L302.983 275.252C300.953 256.604 300.551 253.567 299.905 253.295C299.504 253.096 291.338 249.497 281.73 245.275C272.173 241.096 264.153 237.531 263.993 237.355C263.785 237.183 262.647 229.699 261.45 220.682C260.252 211.666 258.974 202.801 258.645 200.959L258.068 197.602L267.961 190.541C276.351 184.594 277.841 183.337 277.881 182.323C277.941 179.624 276.346 180.314 266.273 187.49C260.324 191.699 256.35 194.265 255.771 194.18C255.285 194.084 247.931 190.981 239.463 187.221L224.032 180.462L222.674 167.036C221.927 159.657 221.145 153.34 220.96 152.925C220.431 151.921 218.463 152.216 217.961 153.373C217.737 153.973 218.059 159.039 218.815 166.513C220.034 178.558 220.048 178.7 219.049 178.225C218.294 177.82 217.729 177.877 216.69 178.415L215.33 179.082L213.93 166.19L212.479 153.255L211.146 153.245C210.383 153.226 209.79 153.479 209.687 153.874ZM279.395 248.06L297.075 255.89L299.084 275.743L301.093 295.595L284.94 307.089L268.735 318.54L250.414 310.487L232.088 302.385L230.188 282.666L228.33 262.895L244.304 251.515C253.088 245.239 260.613 240.149 260.994 240.159C261.381 240.216 269.683 243.753 279.395 248.06Z" fill="#87A9E2"/>
<path d="M247.314 255.395C234.706 264.318 233.169 265.58 233.209 266.441C233.252 266.87 234.757 268.112 235.181 268.069C235.369 268.05 241.727 263.655 249.27 258.275C260.278 250.476 263.057 248.319 263.065 247.453C263.147 246.386 262.307 245.605 261.318 245.705C261.083 245.729 254.772 250.119 247.314 255.395Z" fill="#87A9E2"/>
<path d="M290.081 259.628C289.277 260.623 289.298 261.294 290.83 276.434C291.832 286.336 292.641 292.458 292.987 293.049C293.71 294.082 295.697 293.977 296.015 292.887C296.113 292.444 295.488 284.86 294.592 276.005C293.176 262.008 292.855 259.78 292.133 259.228C291.095 258.371 291.095 258.371 290.081 259.628Z" fill="#87A9E2"/>
<path d="M237.059 296.977C236.551 297.605 236.548 298.038 236.94 298.624C237.507 299.528 266.602 312.504 267.982 312.508C269.173 312.532 269.966 310.961 269.257 310.071C268.714 309.404 240.36 296.691 238.611 296.338C238.126 296.243 237.444 296.553 237.059 296.977Z" fill="#87A9E2"/>
<path d="M305.139 178.555C304.81 179.069 304.769 179.603 305.147 180.045C305.421 180.402 309.575 182.435 314.355 184.548L323.068 188.38L324.84 203.543L326.608 218.658L328.02 218.516L329.433 218.373L328.143 204.219L326.812 190.117L328.23 190.503C331.459 191.379 332.098 188.765 329.042 187.246C324.087 184.814 307.086 177.589 306.427 177.655C306.003 177.698 305.472 178.089 305.139 178.555Z" fill="#87A9E2"/>
<path d="M332.085 185.351C331.752 185.818 332.092 190.593 333.333 201.914C334.977 216.753 335.13 217.796 335.945 217.858C338.155 218.067 338.159 217.634 336.477 201.019C334.965 186.07 334.845 185.361 333.95 184.97C332.71 184.471 332.663 184.475 332.085 185.351Z" fill="#87A9E2"/>
<path d="M182.755 266.16L183.767 276.158L184.944 276.038L186.121 275.919L185.109 265.922L184.098 255.924L182.921 256.043L181.743 256.162L182.755 266.16Z" fill="#87A9E2"/>
<path d="M344.697 42.483L345.709 52.4806L347.122 52.3377L348.534 52.1947L348.077 47.672L347.619 43.1493L352.328 42.6728L357.037 42.1963L356.916 41.0061L356.796 39.8159L352.087 40.2924L347.378 40.7689L347.065 37.6744L346.752 34.5799L352.167 34.0319L357.582 33.484L357.462 32.2938L357.341 31.1036L350.514 31.7945L343.686 32.4854L344.697 42.483Z" fill="#61279E"/>
<path d="M235.658 74.3901L236.65 84.1973L237.828 84.0782L239.005 83.9591L238.258 76.5799C237.849 72.5332 237.653 69.1864 237.888 69.1626C238.081 69.1911 240.768 72.2378 243.909 76.0081C249.274 82.4871 249.694 82.8775 251.154 82.7297L252.661 82.5773L251.673 72.8177L250.686 63.0581L249.273 63.2011L247.907 63.3393L248.518 70.7803L249.128 78.2214L243.399 71.4425C238.261 65.3253 237.525 64.6303 236.192 64.6209L234.67 64.6306L235.658 74.3901Z" fill="#61279E"/>
<path d="M69.1153 125.678L70.127 135.676L71.5396 135.533L72.9523 135.39L72.4946 130.867L72.037 126.345L76.7459 125.868L81.4548 125.392L81.3344 124.201L81.2139 123.011L76.505 123.488L71.7961 123.964L71.483 120.87L71.1699 117.775L76.5851 117.227L82.0003 116.679L81.8799 115.489L81.7595 114.299L74.9316 114.99L68.1037 115.681L69.1153 125.678Z" fill="#61279E"/>
<path d="M208.931 129.951C206.79 130.889 204.437 133.965 203.967 136.369C202.552 144.015 207.408 150.161 214.377 149.456C217.438 149.146 219.564 148.065 221.119 146.032C224.444 141.752 223.669 134.568 219.517 131.14C216.662 128.784 212.62 128.327 208.931 129.951ZM217.075 132.397C219.137 133.968 219.97 135.615 220.264 138.519C220.745 143.28 219 146.246 215.149 147.213C212.692 147.847 209.321 146.504 207.913 144.338C206.675 142.444 206.113 137.835 206.867 135.883C207.434 134.431 208.998 132.493 210.085 131.95C210.442 131.722 211.897 131.527 213.272 131.484C215.118 131.393 216.094 131.631 217.075 132.397Z" fill="#61279E"/>
<path d="M44.6046 179.62L45.6162 189.618L46.7934 189.499C47.9707 189.38 47.9707 189.38 47.513 184.857L47.0602 180.382L51.8959 179.748C56.4491 179.143 56.6797 179.072 56.7198 178.058C56.7551 176.996 56.6138 177.01 51.8905 177.344L47.0258 177.692L46.5811 174.707L46.1411 171.77L51.8389 171.193L57.4896 170.621L57.3692 169.431L57.2487 168.241L50.4208 168.932L43.5929 169.623L44.6046 179.62Z" fill="#61279E"/>
<path d="M282.375 174.077L283.362 183.837L284.775 183.694L286.141 183.556L285.525 176.067L284.91 168.578L290.752 175.538C296.056 181.879 296.736 182.484 297.96 182.36L299.373 182.217L298.385 172.457L297.397 162.698L296.22 162.817L295.043 162.936L295.724 170.61L296.359 178.289L290.403 171.149C284.774 164.408 284.354 164.017 282.941 164.16L281.387 164.318L282.375 174.077Z" fill="#61279E"/>
<path d="M175.219 205.794L176.235 215.839L177.648 215.696L179.061 215.553L178.389 207.974L177.769 200.437L183.663 207.44C188.962 213.733 189.703 214.476 190.927 214.352L192.246 214.219L191.234 204.221L190.222 194.223L189.045 194.343L187.868 194.462L188.648 202.174C189.207 207.697 189.273 209.758 188.858 209.415C188.546 209.158 185.803 206.021 182.771 202.384C177.798 196.491 177.061 195.796 175.681 195.791L174.207 195.796L175.219 205.794Z" fill="#61279E"/>
<path d="M177.713 229.493L178.856 239.381L180.189 239.39L181.475 239.404L180.993 234.644L180.506 229.835L185.686 229.311L190.819 228.792L191.428 233.395L192.041 238.047L193.374 238.056L194.66 238.07L193.648 228.073L192.632 218.027L191.219 218.17L189.806 218.313L190.216 222.36L190.625 226.407L185.445 226.931L180.266 227.455L179.856 223.408L179.447 219.361L178.034 219.504L176.621 219.647L177.713 229.493Z" fill="#61279E"/>
<path d="M328.994 222.024C323.155 224.491 321.658 233.203 326.164 238.711C329.371 242.667 336.888 242.676 340.534 238.748C344.133 234.825 343.365 226.293 339.137 223.066C336.509 221.071 332.279 220.634 328.994 222.024ZM336.205 224.18C338.407 225.256 339.628 227.441 339.989 231.012C340.326 234.344 339.713 236.282 337.791 237.967C336.047 239.539 332.666 239.977 330.422 238.953C327.173 237.406 325.277 231.827 326.747 228.023C328.128 224.276 332.697 222.419 336.205 224.18Z" fill="#61279E"/>
<path d="M167.72 257.678C163.554 258.82 161.178 262.139 161.081 266.814C161.031 270.09 162.727 274.15 164.907 275.95C169.267 279.549 177.067 277.653 178.841 272.616C179.538 270.574 179.277 269.878 177.771 270.031C177.017 270.107 176.59 270.583 176.314 271.621C175.73 273.845 173.459 275.373 170.657 275.416C166.333 275.469 163.663 271.651 163.928 265.805C164.103 261.891 167.689 258.787 171.407 259.324C172.618 259.539 174.406 260.752 175.459 262.233C176.121 263.128 178.112 262.59 178.011 261.59C177.924 260.733 175.451 258.386 174.107 257.801C172.466 257.101 169.89 257.025 167.72 257.678Z" fill="#61279E"/>
</g>
<defs>
<clipPath id="clip0_506_26347">
<rect width="534.349" height="305.767" fill="white" transform="translate(0 53.7956) rotate(-5.77803)"/>
</clipPath>
</defs>
</svg>
